<mxfile host="app.diagrams.net" modified="2023-07-21T07:12:53.320Z" agent="Mozilla/5.0 (Windows NT 10.0; Win64; x64) AppleWebKit/537.36 (KHTML, like Gecko) Chrome/115.0.0.0 Safari/537.36" etag="xKp7KZ9tZB0iEkm_81Bi" version="21.6.5" type="google">
  <diagram name="Page-1" id="ytPD89wfCo71jnGjPEC4">
    <mxGraphModel grid="1" page="1" gridSize="10" guides="1" tooltips="1" connect="1" arrows="1" fold="1" pageScale="1" pageWidth="1100" pageHeight="850" background="none" math="0" shadow="0">
      <root>
        <mxCell id="0" />
        <mxCell id="1" parent="0" />
        <mxCell id="jm79QStJ3uFLxcATrEid-1" style="rounded=0;orthogonalLoop=1;jettySize=auto;html=1;entryX=0.5;entryY=0;entryDx=0;entryDy=0;endArrow=none;endFill=0;" edge="1" parent="1" target="jm79QStJ3uFLxcATrEid-20">
          <mxGeometry relative="1" as="geometry">
            <mxPoint x="510" y="790" as="targetPoint" />
            <mxPoint x="310" y="760" as="sourcePoint" />
          </mxGeometry>
        </mxCell>
        <mxCell id="FtW1f8G6RgU09kgWnwWG-4" style="edgeStyle=orthogonalEdgeStyle;rounded=0;orthogonalLoop=1;jettySize=auto;html=1;entryX=0.5;entryY=1;entryDx=0;entryDy=0;endArrow=none;endFill=0;shape=link;" edge="1" parent="1" source="FtW1f8G6RgU09kgWnwWG-9" target="FtW1f8G6RgU09kgWnwWG-3">
          <mxGeometry relative="1" as="geometry" />
        </mxCell>
        <mxCell id="jm79QStJ3uFLxcATrEid-2" value="Asesor" style="whiteSpace=wrap;html=1;align=center;" vertex="1" parent="1">
          <mxGeometry x="260" y="720" width="100" height="40" as="geometry" />
        </mxCell>
        <mxCell id="jm79QStJ3uFLxcATrEid-7" style="rounded=0;orthogonalLoop=1;jettySize=auto;html=1;entryX=0.5;entryY=1;entryDx=0;entryDy=0;endArrow=none;endFill=0;" edge="1" parent="1" source="jm79QStJ3uFLxcATrEid-8" target="jm79QStJ3uFLxcATrEid-2">
          <mxGeometry relative="1" as="geometry" />
        </mxCell>
        <mxCell id="jm79QStJ3uFLxcATrEid-8" value="email" style="ellipse;whiteSpace=wrap;html=1;align=center;" vertex="1" parent="1">
          <mxGeometry x="275" y="890" width="100" height="40" as="geometry" />
        </mxCell>
        <mxCell id="jm79QStJ3uFLxcATrEid-9" style="rounded=0;orthogonalLoop=1;jettySize=auto;html=1;entryX=0.5;entryY=1;entryDx=0;entryDy=0;endArrow=none;endFill=0;" edge="1" parent="1" source="jm79QStJ3uFLxcATrEid-10" target="jm79QStJ3uFLxcATrEid-2">
          <mxGeometry relative="1" as="geometry" />
        </mxCell>
        <mxCell id="jm79QStJ3uFLxcATrEid-10" value="nomor_ktp" style="ellipse;whiteSpace=wrap;html=1;align=center;" vertex="1" parent="1">
          <mxGeometry x="-100" y="775" width="100" height="40" as="geometry" />
        </mxCell>
        <mxCell id="jm79QStJ3uFLxcATrEid-11" style="rounded=0;orthogonalLoop=1;jettySize=auto;html=1;entryX=0.5;entryY=1;entryDx=0;entryDy=0;endArrow=none;endFill=0;" edge="1" parent="1" source="jm79QStJ3uFLxcATrEid-12" target="jm79QStJ3uFLxcATrEid-2">
          <mxGeometry relative="1" as="geometry" />
        </mxCell>
        <mxCell id="jm79QStJ3uFLxcATrEid-12" value="password" style="ellipse;whiteSpace=wrap;html=1;align=center;" vertex="1" parent="1">
          <mxGeometry x="-55" y="815" width="100" height="40" as="geometry" />
        </mxCell>
        <mxCell id="jm79QStJ3uFLxcATrEid-13" style="rounded=0;orthogonalLoop=1;jettySize=auto;html=1;entryX=0.5;entryY=1;entryDx=0;entryDy=0;endArrow=none;endFill=0;" edge="1" parent="1" source="jm79QStJ3uFLxcATrEid-21" target="jm79QStJ3uFLxcATrEid-2">
          <mxGeometry relative="1" as="geometry">
            <mxPoint x="96" y="913" as="sourcePoint" />
          </mxGeometry>
        </mxCell>
        <mxCell id="jm79QStJ3uFLxcATrEid-14" style="rounded=0;orthogonalLoop=1;jettySize=auto;html=1;entryX=0.5;entryY=1;entryDx=0;entryDy=0;endArrow=none;endFill=0;" edge="1" parent="1" source="jm79QStJ3uFLxcATrEid-15" target="jm79QStJ3uFLxcATrEid-2">
          <mxGeometry relative="1" as="geometry" />
        </mxCell>
        <mxCell id="jm79QStJ3uFLxcATrEid-15" value="pendidikan_terakhir" style="ellipse;whiteSpace=wrap;html=1;align=center;" vertex="1" parent="1">
          <mxGeometry x="55" y="810" width="120" height="50" as="geometry" />
        </mxCell>
        <mxCell id="jm79QStJ3uFLxcATrEid-18" style="rounded=0;orthogonalLoop=1;jettySize=auto;html=1;endArrow=none;endFill=0;entryX=0.5;entryY=1;entryDx=0;entryDy=0;" edge="1" parent="1" source="jm79QStJ3uFLxcATrEid-19" target="jm79QStJ3uFLxcATrEid-2">
          <mxGeometry relative="1" as="geometry">
            <mxPoint x="400" y="829.9999999999998" as="targetPoint" />
          </mxGeometry>
        </mxCell>
        <mxCell id="jm79QStJ3uFLxcATrEid-19" value="&lt;u&gt;nomor_regristrasi _asesor&lt;/u&gt;" style="ellipse;whiteSpace=wrap;html=1;align=center;" vertex="1" parent="1">
          <mxGeometry x="40" y="921" width="150" height="50" as="geometry" />
        </mxCell>
        <mxCell id="jm79QStJ3uFLxcATrEid-20" value="alamat" style="ellipse;whiteSpace=wrap;html=1;align=center;" vertex="1" parent="1">
          <mxGeometry x="325" y="830" width="100" height="40" as="geometry" />
        </mxCell>
        <mxCell id="jm79QStJ3uFLxcATrEid-21" value="nama_asesor" style="ellipse;whiteSpace=wrap;html=1;align=center;" vertex="1" parent="1">
          <mxGeometry x="20" y="870" width="100" height="40" as="geometry" />
        </mxCell>
        <mxCell id="jm79QStJ3uFLxcATrEid-23" style="rounded=0;orthogonalLoop=1;jettySize=auto;html=1;endArrow=none;endFill=0;exitX=1;exitY=0.5;exitDx=0;exitDy=0;entryX=0;entryY=0.5;entryDx=0;entryDy=0;" edge="1" parent="1" source="jm79QStJ3uFLxcATrEid-27" target="jm79QStJ3uFLxcATrEid-29">
          <mxGeometry relative="1" as="geometry">
            <mxPoint x="1230" y="737" as="sourcePoint" />
          </mxGeometry>
        </mxCell>
        <mxCell id="jm79QStJ3uFLxcATrEid-24" style="rounded=0;orthogonalLoop=1;jettySize=auto;html=1;entryX=0.007;entryY=0.389;entryDx=0;entryDy=0;endArrow=none;endFill=0;exitX=1;exitY=0.5;exitDx=0;exitDy=0;entryPerimeter=0;" edge="1" parent="1" source="jm79QStJ3uFLxcATrEid-27" target="jm79QStJ3uFLxcATrEid-28">
          <mxGeometry relative="1" as="geometry">
            <mxPoint x="1230" y="737" as="sourcePoint" />
          </mxGeometry>
        </mxCell>
        <mxCell id="jm79QStJ3uFLxcATrEid-25" style="rounded=0;orthogonalLoop=1;jettySize=auto;html=1;entryX=0;entryY=0.5;entryDx=0;entryDy=0;endArrow=none;endFill=0;exitX=1;exitY=0.5;exitDx=0;exitDy=0;" edge="1" parent="1" source="jm79QStJ3uFLxcATrEid-27" target="jm79QStJ3uFLxcATrEid-30">
          <mxGeometry relative="1" as="geometry">
            <mxPoint x="1230" y="737" as="sourcePoint" />
          </mxGeometry>
        </mxCell>
        <mxCell id="jm79QStJ3uFLxcATrEid-26" style="rounded=0;orthogonalLoop=1;jettySize=auto;html=1;entryX=0.5;entryY=1;entryDx=0;entryDy=0;endArrow=none;endFill=0;exitX=1;exitY=0.5;exitDx=0;exitDy=0;" edge="1" parent="1" source="jm79QStJ3uFLxcATrEid-27" target="jm79QStJ3uFLxcATrEid-33">
          <mxGeometry relative="1" as="geometry">
            <mxPoint x="1290" y="632" as="targetPoint" />
            <mxPoint x="1230" y="737" as="sourcePoint" />
          </mxGeometry>
        </mxCell>
        <mxCell id="jm79QStJ3uFLxcATrEid-27" value="Admin" style="whiteSpace=wrap;html=1;align=center;" vertex="1" parent="1">
          <mxGeometry x="1170" y="720" width="100" height="40" as="geometry" />
        </mxCell>
        <mxCell id="jm79QStJ3uFLxcATrEid-28" value="password&lt;br&gt;" style="ellipse;whiteSpace=wrap;html=1;align=center;" vertex="1" parent="1">
          <mxGeometry x="1410" y="797" width="100" height="40" as="geometry" />
        </mxCell>
        <mxCell id="jm79QStJ3uFLxcATrEid-29" value="&lt;u&gt;no_induk_pegawai&lt;/u&gt;" style="ellipse;whiteSpace=wrap;html=1;align=center;" vertex="1" parent="1">
          <mxGeometry x="1470" y="704" width="120" height="36" as="geometry" />
        </mxCell>
        <mxCell id="jm79QStJ3uFLxcATrEid-30" value="email" style="ellipse;whiteSpace=wrap;html=1;align=center;" vertex="1" parent="1">
          <mxGeometry x="1440" y="747" width="100" height="40" as="geometry" />
        </mxCell>
        <mxCell id="jm79QStJ3uFLxcATrEid-33" value="nama_admin" style="ellipse;whiteSpace=wrap;html=1;align=center;" vertex="1" parent="1">
          <mxGeometry x="1440" y="610" width="100" height="40" as="geometry" />
        </mxCell>
        <mxCell id="jm79QStJ3uFLxcATrEid-37" style="rounded=0;orthogonalLoop=1;jettySize=auto;html=1;entryX=1;entryY=0.5;entryDx=0;entryDy=0;endArrow=none;endFill=0;" edge="1" parent="1" source="jm79QStJ3uFLxcATrEid-36" target="jm79QStJ3uFLxcATrEid-27">
          <mxGeometry relative="1" as="geometry" />
        </mxCell>
        <mxCell id="jm79QStJ3uFLxcATrEid-36" value="no_hp" style="ellipse;whiteSpace=wrap;html=1;align=center;" vertex="1" parent="1">
          <mxGeometry x="1360" y="850" width="100" height="40" as="geometry" />
        </mxCell>
        <mxCell id="jm79QStJ3uFLxcATrEid-39" style="rounded=0;orthogonalLoop=1;jettySize=auto;html=1;entryX=1;entryY=0.5;entryDx=0;entryDy=0;endArrow=none;endFill=0;" edge="1" parent="1" source="jm79QStJ3uFLxcATrEid-38" target="jm79QStJ3uFLxcATrEid-27">
          <mxGeometry relative="1" as="geometry" />
        </mxCell>
        <mxCell id="jm79QStJ3uFLxcATrEid-38" value="Alamat" style="ellipse;whiteSpace=wrap;html=1;align=center;" vertex="1" parent="1">
          <mxGeometry x="1260" y="860" width="100" height="40" as="geometry" />
        </mxCell>
        <mxCell id="jm79QStJ3uFLxcATrEid-41" style="rounded=0;orthogonalLoop=1;jettySize=auto;html=1;endArrow=none;endFill=0;entryX=0.5;entryY=1;entryDx=0;entryDy=0;" edge="1" parent="1" source="jm79QStJ3uFLxcATrEid-40" target="jm79QStJ3uFLxcATrEid-2">
          <mxGeometry relative="1" as="geometry" />
        </mxCell>
        <mxCell id="jm79QStJ3uFLxcATrEid-40" value="tanggal_lahir" style="ellipse;whiteSpace=wrap;html=1;align=center;" vertex="1" parent="1">
          <mxGeometry x="-185" y="744" width="100" height="40" as="geometry" />
        </mxCell>
        <mxCell id="jm79QStJ3uFLxcATrEid-43" style="rounded=0;orthogonalLoop=1;jettySize=auto;html=1;entryX=1;entryY=0.5;entryDx=0;entryDy=0;endArrow=none;endFill=0;" edge="1" parent="1" source="jm79QStJ3uFLxcATrEid-42" target="jm79QStJ3uFLxcATrEid-27">
          <mxGeometry relative="1" as="geometry" />
        </mxCell>
        <mxCell id="jm79QStJ3uFLxcATrEid-42" value="tanggal_lahir" style="ellipse;whiteSpace=wrap;html=1;align=center;" vertex="1" parent="1">
          <mxGeometry x="1350" y="580" width="100" height="40" as="geometry" />
        </mxCell>
        <mxCell id="jm79QStJ3uFLxcATrEid-60" style="edgeStyle=orthogonalEdgeStyle;rounded=0;orthogonalLoop=1;jettySize=auto;html=1;entryX=0.5;entryY=0;entryDx=0;entryDy=0;endArrow=none;endFill=0;shape=link;" edge="1" parent="1" source="jm79QStJ3uFLxcATrEid-62" target="jm79QStJ3uFLxcATrEid-59">
          <mxGeometry relative="1" as="geometry" />
        </mxCell>
        <mxCell id="jm79QStJ3uFLxcATrEid-151" style="rounded=0;orthogonalLoop=1;jettySize=auto;html=1;endArrow=none;endFill=0;exitX=0;exitY=0.5;exitDx=0;exitDy=0;" edge="1" parent="1" source="jm79QStJ3uFLxcATrEid-52" target="jm79QStJ3uFLxcATrEid-150">
          <mxGeometry relative="1" as="geometry">
            <mxPoint x="260" y="490" as="sourcePoint" />
          </mxGeometry>
        </mxCell>
        <mxCell id="jm79QStJ3uFLxcATrEid-52" value="Surat_Tugas" style="whiteSpace=wrap;html=1;align=center;" vertex="1" parent="1">
          <mxGeometry x="360" y="460" width="100" height="40" as="geometry" />
        </mxCell>
        <mxCell id="jm79QStJ3uFLxcATrEid-57" style="rounded=0;orthogonalLoop=1;jettySize=auto;html=1;entryX=0;entryY=0.5;entryDx=0;entryDy=0;endArrow=none;endFill=0;" edge="1" parent="1" source="jm79QStJ3uFLxcATrEid-53" target="jm79QStJ3uFLxcATrEid-52">
          <mxGeometry relative="1" as="geometry" />
        </mxCell>
        <mxCell id="jm79QStJ3uFLxcATrEid-53" value="tanggal_st" style="ellipse;whiteSpace=wrap;html=1;align=center;" vertex="1" parent="1">
          <mxGeometry x="75" y="510" width="100" height="40" as="geometry" />
        </mxCell>
        <mxCell id="jm79QStJ3uFLxcATrEid-58" style="rounded=0;orthogonalLoop=1;jettySize=auto;html=1;entryX=0;entryY=0.5;entryDx=0;entryDy=0;endArrow=none;endFill=0;" edge="1" parent="1" source="jm79QStJ3uFLxcATrEid-54" target="jm79QStJ3uFLxcATrEid-52">
          <mxGeometry relative="1" as="geometry" />
        </mxCell>
        <mxCell id="jm79QStJ3uFLxcATrEid-54" value="&lt;u&gt;no_st&lt;/u&gt;" style="ellipse;whiteSpace=wrap;html=1;align=center;" vertex="1" parent="1">
          <mxGeometry x="65" y="560" width="100" height="40" as="geometry" />
        </mxCell>
        <mxCell id="jm79QStJ3uFLxcATrEid-56" style="rounded=0;orthogonalLoop=1;jettySize=auto;html=1;entryX=0;entryY=0.5;entryDx=0;entryDy=0;endArrow=none;endFill=0;" edge="1" parent="1" source="jm79QStJ3uFLxcATrEid-55" target="jm79QStJ3uFLxcATrEid-52">
          <mxGeometry relative="1" as="geometry" />
        </mxCell>
        <mxCell id="jm79QStJ3uFLxcATrEid-55" value="Skema_st" style="ellipse;whiteSpace=wrap;html=1;align=center;" vertex="1" parent="1">
          <mxGeometry x="50" y="470" width="100" height="40" as="geometry" />
        </mxCell>
        <mxCell id="jm79QStJ3uFLxcATrEid-61" style="edgeStyle=orthogonalEdgeStyle;rounded=0;orthogonalLoop=1;jettySize=auto;html=1;entryX=0.5;entryY=0;entryDx=0;entryDy=0;endArrow=none;endFill=0;" edge="1" parent="1" source="jm79QStJ3uFLxcATrEid-64" target="jm79QStJ3uFLxcATrEid-2">
          <mxGeometry relative="1" as="geometry" />
        </mxCell>
        <mxCell id="jm79QStJ3uFLxcATrEid-59" value="mendapat" style="shape=rhombus;perimeter=rhombusPerimeter;whiteSpace=wrap;html=1;align=center;" vertex="1" parent="1">
          <mxGeometry x="350" y="600" width="120" height="60" as="geometry" />
        </mxCell>
        <mxCell id="jm79QStJ3uFLxcATrEid-63" value="" style="edgeStyle=orthogonalEdgeStyle;rounded=0;orthogonalLoop=1;jettySize=auto;html=1;entryX=0.5;entryY=0;entryDx=0;entryDy=0;endArrow=none;endFill=0;shape=link;" edge="1" parent="1" source="jm79QStJ3uFLxcATrEid-52" target="jm79QStJ3uFLxcATrEid-62">
          <mxGeometry relative="1" as="geometry">
            <mxPoint x="310" y="530" as="sourcePoint" />
            <mxPoint x="310" y="600" as="targetPoint" />
          </mxGeometry>
        </mxCell>
        <mxCell id="jm79QStJ3uFLxcATrEid-62" value="M" style="text;html=1;align=center;verticalAlign=middle;resizable=0;points=[];autosize=1;strokeColor=none;fillColor=none;" vertex="1" parent="1">
          <mxGeometry x="395" y="540" width="30" height="30" as="geometry" />
        </mxCell>
        <mxCell id="jm79QStJ3uFLxcATrEid-65" value="" style="edgeStyle=orthogonalEdgeStyle;rounded=0;orthogonalLoop=1;jettySize=auto;html=1;entryX=0.5;entryY=0;entryDx=0;entryDy=0;endArrow=none;endFill=0;" edge="1" parent="1" source="jm79QStJ3uFLxcATrEid-59" target="jm79QStJ3uFLxcATrEid-64">
          <mxGeometry relative="1" as="geometry">
            <mxPoint x="310" y="660" as="sourcePoint" />
            <mxPoint x="310" y="720" as="targetPoint" />
          </mxGeometry>
        </mxCell>
        <mxCell id="jm79QStJ3uFLxcATrEid-64" value="1" style="text;html=1;align=center;verticalAlign=middle;resizable=0;points=[];autosize=1;strokeColor=none;fillColor=none;" vertex="1" parent="1">
          <mxGeometry x="295" y="670" width="30" height="30" as="geometry" />
        </mxCell>
        <mxCell id="xACsCUWBazeNwFVSPH7_-12" style="edgeStyle=orthogonalEdgeStyle;rounded=0;orthogonalLoop=1;jettySize=auto;html=1;entryX=0.5;entryY=0;entryDx=0;entryDy=0;endArrow=none;endFill=0;shape=link;" edge="1" parent="1" source="xACsCUWBazeNwFVSPH7_-16" target="xACsCUWBazeNwFVSPH7_-11">
          <mxGeometry relative="1" as="geometry" />
        </mxCell>
        <mxCell id="jm79QStJ3uFLxcATrEid-77" value="jadwal" style="whiteSpace=wrap;html=1;align=center;" vertex="1" parent="1">
          <mxGeometry x="270" y="280" width="100" height="40" as="geometry" />
        </mxCell>
        <mxCell id="jm79QStJ3uFLxcATrEid-78" style="rounded=0;orthogonalLoop=1;jettySize=auto;html=1;endArrow=none;endFill=0;entryX=0.5;entryY=0;entryDx=0;entryDy=0;" edge="1" parent="1" source="jm79QStJ3uFLxcATrEid-79" target="jm79QStJ3uFLxcATrEid-77">
          <mxGeometry relative="1" as="geometry" />
        </mxCell>
        <mxCell id="jm79QStJ3uFLxcATrEid-79" value="&lt;u&gt;id_jadwal&lt;/u&gt;" style="ellipse;whiteSpace=wrap;html=1;align=center;" vertex="1" parent="1">
          <mxGeometry x="180" y="200" width="100" height="40" as="geometry" />
        </mxCell>
        <mxCell id="jm79QStJ3uFLxcATrEid-80" style="rounded=0;orthogonalLoop=1;jettySize=auto;html=1;endArrow=none;endFill=0;" edge="1" parent="1" source="jm79QStJ3uFLxcATrEid-81" target="jm79QStJ3uFLxcATrEid-77">
          <mxGeometry relative="1" as="geometry" />
        </mxCell>
        <mxCell id="jm79QStJ3uFLxcATrEid-81" value="tanggal_jadwal" style="ellipse;whiteSpace=wrap;html=1;align=center;" vertex="1" parent="1">
          <mxGeometry x="420" y="205" width="100" height="40" as="geometry" />
        </mxCell>
        <mxCell id="jm79QStJ3uFLxcATrEid-85" value="" style="edgeStyle=orthogonalEdgeStyle;rounded=0;orthogonalLoop=1;jettySize=auto;html=1;entryX=0.5;entryY=0;entryDx=0;entryDy=0;endArrow=none;endFill=0;shape=link;" edge="1" parent="1" source="jm79QStJ3uFLxcATrEid-87" target="jm79QStJ3uFLxcATrEid-84">
          <mxGeometry relative="1" as="geometry">
            <mxPoint x="265" y="400" as="sourcePoint" />
            <mxPoint x="260" y="740" as="targetPoint" />
            <Array as="points" />
          </mxGeometry>
        </mxCell>
        <mxCell id="jm79QStJ3uFLxcATrEid-86" style="edgeStyle=orthogonalEdgeStyle;rounded=0;orthogonalLoop=1;jettySize=auto;html=1;endArrow=none;endFill=0;" edge="1" parent="1" source="jm79QStJ3uFLxcATrEid-89">
          <mxGeometry relative="1" as="geometry">
            <mxPoint x="260" y="730" as="targetPoint" />
            <Array as="points">
              <mxPoint x="260" y="730" />
            </Array>
          </mxGeometry>
        </mxCell>
        <mxCell id="jm79QStJ3uFLxcATrEid-84" value="mendapat" style="shape=rhombus;perimeter=rhombusPerimeter;whiteSpace=wrap;html=1;align=center;" vertex="1" parent="1">
          <mxGeometry x="-40" y="600" width="120" height="60" as="geometry" />
        </mxCell>
        <mxCell id="jm79QStJ3uFLxcATrEid-88" value="" style="edgeStyle=orthogonalEdgeStyle;rounded=0;orthogonalLoop=1;jettySize=auto;html=1;entryX=0.5;entryY=0;entryDx=0;entryDy=0;endArrow=none;endFill=0;shape=link;" edge="1" parent="1" source="jm79QStJ3uFLxcATrEid-77" target="jm79QStJ3uFLxcATrEid-87">
          <mxGeometry relative="1" as="geometry">
            <mxPoint x="265" y="400" as="sourcePoint" />
            <mxPoint x="20" y="600" as="targetPoint" />
            <Array as="points" />
          </mxGeometry>
        </mxCell>
        <mxCell id="jm79QStJ3uFLxcATrEid-87" value="M" style="text;html=1;align=center;verticalAlign=middle;resizable=0;points=[];autosize=1;strokeColor=none;fillColor=none;" vertex="1" parent="1">
          <mxGeometry x="5" y="480" width="30" height="30" as="geometry" />
        </mxCell>
        <mxCell id="jm79QStJ3uFLxcATrEid-90" value="" style="edgeStyle=orthogonalEdgeStyle;rounded=0;orthogonalLoop=1;jettySize=auto;html=1;entryX=0;entryY=0.5;entryDx=0;entryDy=0;exitX=0.5;exitY=1;exitDx=0;exitDy=0;endArrow=none;endFill=0;" edge="1" parent="1" source="jm79QStJ3uFLxcATrEid-84" target="jm79QStJ3uFLxcATrEid-89">
          <mxGeometry relative="1" as="geometry">
            <mxPoint x="20" y="660" as="sourcePoint" />
            <mxPoint x="260" y="740" as="targetPoint" />
          </mxGeometry>
        </mxCell>
        <mxCell id="jm79QStJ3uFLxcATrEid-89" value="1" style="text;html=1;align=center;verticalAlign=middle;resizable=0;points=[];autosize=1;strokeColor=none;fillColor=none;" vertex="1" parent="1">
          <mxGeometry x="120" y="714" width="30" height="30" as="geometry" />
        </mxCell>
        <mxCell id="jm79QStJ3uFLxcATrEid-99" value="Sertifikat" style="whiteSpace=wrap;html=1;align=center;" vertex="1" parent="1">
          <mxGeometry x="860" y="860" width="100" height="40" as="geometry" />
        </mxCell>
        <mxCell id="jm79QStJ3uFLxcATrEid-100" style="rounded=0;orthogonalLoop=1;jettySize=auto;html=1;endArrow=none;endFill=0;" edge="1" parent="1" source="jm79QStJ3uFLxcATrEid-101" target="jm79QStJ3uFLxcATrEid-99">
          <mxGeometry relative="1" as="geometry">
            <mxPoint x="790" y="1150.5" as="targetPoint" />
          </mxGeometry>
        </mxCell>
        <mxCell id="jm79QStJ3uFLxcATrEid-101" value="tanggal_kadaluarsa" style="ellipse;whiteSpace=wrap;html=1;align=center;" vertex="1" parent="1">
          <mxGeometry x="800" y="1000" width="120" height="40" as="geometry" />
        </mxCell>
        <mxCell id="jm79QStJ3uFLxcATrEid-102" style="rounded=0;orthogonalLoop=1;jettySize=auto;html=1;endArrow=none;endFill=0;" edge="1" parent="1" source="jm79QStJ3uFLxcATrEid-103" target="jm79QStJ3uFLxcATrEid-99">
          <mxGeometry relative="1" as="geometry">
            <mxPoint x="790" y="1150.5" as="targetPoint" />
          </mxGeometry>
        </mxCell>
        <mxCell id="jm79QStJ3uFLxcATrEid-103" value="&lt;u&gt;nomor_sertifikat&lt;br&gt;&lt;/u&gt;" style="ellipse;whiteSpace=wrap;html=1;align=center;" vertex="1" parent="1">
          <mxGeometry x="1000" y="976" width="100" height="40" as="geometry" />
        </mxCell>
        <mxCell id="jm79QStJ3uFLxcATrEid-104" style="rounded=0;orthogonalLoop=1;jettySize=auto;html=1;entryX=0.5;entryY=1;entryDx=0;entryDy=0;endArrow=none;endFill=0;" edge="1" parent="1" source="jm79QStJ3uFLxcATrEid-105" target="jm79QStJ3uFLxcATrEid-99">
          <mxGeometry relative="1" as="geometry" />
        </mxCell>
        <mxCell id="jm79QStJ3uFLxcATrEid-105" value="Tanggal_aktif" style="ellipse;whiteSpace=wrap;html=1;align=center;" vertex="1" parent="1">
          <mxGeometry x="920" y="1016" width="100" height="40" as="geometry" />
        </mxCell>
        <mxCell id="jm79QStJ3uFLxcATrEid-115" style="edgeStyle=orthogonalEdgeStyle;rounded=0;orthogonalLoop=1;jettySize=auto;html=1;endArrow=none;endFill=0;shape=link;exitX=0.5;exitY=1;exitDx=0;exitDy=0;" edge="1" parent="1" source="jm79QStJ3uFLxcATrEid-108" target="jm79QStJ3uFLxcATrEid-114">
          <mxGeometry relative="1" as="geometry">
            <Array as="points">
              <mxPoint x="680" y="980" />
            </Array>
          </mxGeometry>
        </mxCell>
        <mxCell id="jm79QStJ3uFLxcATrEid-108" value="memiliki" style="shape=rhombus;perimeter=rhombusPerimeter;whiteSpace=wrap;html=1;align=center;" vertex="1" parent="1">
          <mxGeometry x="620" y="800" width="120" height="60" as="geometry" />
        </mxCell>
        <mxCell id="jm79QStJ3uFLxcATrEid-112" value="" style="edgeStyle=orthogonalEdgeStyle;rounded=0;orthogonalLoop=1;jettySize=auto;html=1;entryX=0;entryY=0.5;entryDx=0;entryDy=0;endArrow=none;endFill=0;shape=link;" edge="1" parent="1" source="jm79QStJ3uFLxcATrEid-2" target="jm79QStJ3uFLxcATrEid-109">
          <mxGeometry relative="1" as="geometry">
            <mxPoint x="310" y="760" as="sourcePoint" />
            <mxPoint x="740" y="1130" as="targetPoint" />
            <Array as="points">
              <mxPoint x="310" y="790" />
              <mxPoint x="490" y="790" />
              <mxPoint x="490" y="830" />
            </Array>
          </mxGeometry>
        </mxCell>
        <mxCell id="jm79QStJ3uFLxcATrEid-113" style="edgeStyle=orthogonalEdgeStyle;rounded=0;orthogonalLoop=1;jettySize=auto;html=1;endArrow=none;endFill=0;" edge="1" parent="1" source="jm79QStJ3uFLxcATrEid-109" target="jm79QStJ3uFLxcATrEid-108">
          <mxGeometry relative="1" as="geometry" />
        </mxCell>
        <mxCell id="jm79QStJ3uFLxcATrEid-109" value="1" style="text;html=1;align=center;verticalAlign=middle;resizable=0;points=[];autosize=1;strokeColor=none;fillColor=none;" vertex="1" parent="1">
          <mxGeometry x="550" y="815" width="30" height="30" as="geometry" />
        </mxCell>
        <mxCell id="D0goQB_NHLtPiUzK_Any-1" style="edgeStyle=orthogonalEdgeStyle;rounded=0;orthogonalLoop=1;jettySize=auto;html=1;endArrow=none;endFill=0;shape=link;" edge="1" parent="1" source="jm79QStJ3uFLxcATrEid-114" target="jm79QStJ3uFLxcATrEid-99">
          <mxGeometry relative="1" as="geometry">
            <Array as="points">
              <mxPoint x="820" y="980" />
              <mxPoint x="820" y="980" />
            </Array>
          </mxGeometry>
        </mxCell>
        <mxCell id="jm79QStJ3uFLxcATrEid-114" value="M" style="text;html=1;align=center;verticalAlign=middle;resizable=0;points=[];autosize=1;strokeColor=none;fillColor=none;" vertex="1" parent="1">
          <mxGeometry x="760" y="966" width="30" height="30" as="geometry" />
        </mxCell>
        <mxCell id="jm79QStJ3uFLxcATrEid-149" style="rounded=0;orthogonalLoop=1;jettySize=auto;html=1;endArrow=none;endFill=0;" edge="1" parent="1" source="jm79QStJ3uFLxcATrEid-148" target="jm79QStJ3uFLxcATrEid-2">
          <mxGeometry relative="1" as="geometry" />
        </mxCell>
        <mxCell id="jm79QStJ3uFLxcATrEid-148" value="gambar&lt;br&gt;" style="ellipse;whiteSpace=wrap;html=1;align=center;" vertex="1" parent="1">
          <mxGeometry x="165" y="885" width="110" height="50" as="geometry" />
        </mxCell>
        <mxCell id="jm79QStJ3uFLxcATrEid-150" value="Deskripsi" style="ellipse;whiteSpace=wrap;html=1;align=center;" vertex="1" parent="1">
          <mxGeometry x="150" y="580" width="100" height="40" as="geometry" />
        </mxCell>
        <mxCell id="FtW1f8G6RgU09kgWnwWG-1" value="skema" style="whiteSpace=wrap;html=1;align=center;" vertex="1" parent="1">
          <mxGeometry x="-170" y="320" width="100" height="40" as="geometry" />
        </mxCell>
        <mxCell id="FtW1f8G6RgU09kgWnwWG-5" style="edgeStyle=orthogonalEdgeStyle;rounded=0;orthogonalLoop=1;jettySize=auto;html=1;entryX=0.5;entryY=1;entryDx=0;entryDy=0;endArrow=none;endFill=0;shape=link;" edge="1" parent="1" source="FtW1f8G6RgU09kgWnwWG-10" target="FtW1f8G6RgU09kgWnwWG-1">
          <mxGeometry relative="1" as="geometry" />
        </mxCell>
        <mxCell id="FtW1f8G6RgU09kgWnwWG-3" value="memiliki" style="shape=rhombus;perimeter=rhombusPerimeter;whiteSpace=wrap;html=1;align=center;" vertex="1" parent="1">
          <mxGeometry x="-180" y="510" width="120" height="60" as="geometry" />
        </mxCell>
        <mxCell id="FtW1f8G6RgU09kgWnwWG-12" value="" style="edgeStyle=orthogonalEdgeStyle;rounded=0;orthogonalLoop=1;jettySize=auto;html=1;entryX=0.5;entryY=1;entryDx=0;entryDy=0;endArrow=none;endFill=0;shape=link;" edge="1" parent="1" source="FtW1f8G6RgU09kgWnwWG-3" target="FtW1f8G6RgU09kgWnwWG-10">
          <mxGeometry relative="1" as="geometry">
            <mxPoint x="-120" y="510" as="sourcePoint" />
            <mxPoint x="-120" y="360" as="targetPoint" />
          </mxGeometry>
        </mxCell>
        <mxCell id="FtW1f8G6RgU09kgWnwWG-10" value="1" style="text;html=1;align=center;verticalAlign=middle;resizable=0;points=[];autosize=1;strokeColor=none;fillColor=none;" vertex="1" parent="1">
          <mxGeometry x="-135" y="420" width="30" height="30" as="geometry" />
        </mxCell>
        <mxCell id="FtW1f8G6RgU09kgWnwWG-13" value="" style="edgeStyle=orthogonalEdgeStyle;rounded=0;orthogonalLoop=1;jettySize=auto;html=1;entryX=0.5;entryY=1;entryDx=0;entryDy=0;endArrow=none;endFill=0;shape=link;" edge="1" parent="1" source="jm79QStJ3uFLxcATrEid-2" target="FtW1f8G6RgU09kgWnwWG-9">
          <mxGeometry relative="1" as="geometry">
            <mxPoint x="260" y="740" as="sourcePoint" />
            <mxPoint x="-120" y="570" as="targetPoint" />
          </mxGeometry>
        </mxCell>
        <mxCell id="FtW1f8G6RgU09kgWnwWG-9" value="1" style="text;html=1;align=center;verticalAlign=middle;resizable=0;points=[];autosize=1;strokeColor=none;fillColor=none;" vertex="1" parent="1">
          <mxGeometry x="-135" y="640" width="30" height="30" as="geometry" />
        </mxCell>
        <mxCell id="maA6EnQgNs5teq2-q9p7-2" style="rounded=0;orthogonalLoop=1;jettySize=auto;html=1;entryX=1;entryY=0.5;entryDx=0;entryDy=0;endArrow=none;endFill=0;" edge="1" parent="1" source="maA6EnQgNs5teq2-q9p7-1" target="jm79QStJ3uFLxcATrEid-27">
          <mxGeometry relative="1" as="geometry" />
        </mxCell>
        <mxCell id="maA6EnQgNs5teq2-q9p7-1" value="gambar" style="ellipse;whiteSpace=wrap;html=1;align=center;" vertex="1" parent="1">
          <mxGeometry x="1520" y="650" width="100" height="40" as="geometry" />
        </mxCell>
        <mxCell id="maA6EnQgNs5teq2-q9p7-5" style="rounded=0;orthogonalLoop=1;jettySize=auto;html=1;endArrow=none;endFill=0;entryX=0.5;entryY=0;entryDx=0;entryDy=0;" edge="1" parent="1" source="maA6EnQgNs5teq2-q9p7-4" target="jm79QStJ3uFLxcATrEid-99">
          <mxGeometry relative="1" as="geometry" />
        </mxCell>
        <mxCell id="maA6EnQgNs5teq2-q9p7-4" value="sertifikat" style="ellipse;whiteSpace=wrap;html=1;align=center;" vertex="1" parent="1">
          <mxGeometry x="790" y="784" width="120" height="40" as="geometry" />
        </mxCell>
        <mxCell id="maA6EnQgNs5teq2-q9p7-11" style="rounded=0;orthogonalLoop=1;jettySize=auto;html=1;entryX=0;entryY=0.5;entryDx=0;entryDy=0;endArrow=none;endFill=0;" edge="1" parent="1" source="maA6EnQgNs5teq2-q9p7-8" target="FtW1f8G6RgU09kgWnwWG-1">
          <mxGeometry relative="1" as="geometry" />
        </mxCell>
        <mxCell id="maA6EnQgNs5teq2-q9p7-8" value="nama_skema" style="ellipse;whiteSpace=wrap;html=1;align=center;" vertex="1" parent="1">
          <mxGeometry x="-340" y="318" width="120" height="40" as="geometry" />
        </mxCell>
        <mxCell id="maA6EnQgNs5teq2-q9p7-10" style="rounded=0;orthogonalLoop=1;jettySize=auto;html=1;entryX=0;entryY=0.5;entryDx=0;entryDy=0;endArrow=none;endFill=0;" edge="1" parent="1" source="maA6EnQgNs5teq2-q9p7-9" target="FtW1f8G6RgU09kgWnwWG-1">
          <mxGeometry relative="1" as="geometry" />
        </mxCell>
        <mxCell id="maA6EnQgNs5teq2-q9p7-9" value="&lt;u&gt;id_skema&lt;/u&gt;" style="ellipse;whiteSpace=wrap;html=1;align=center;" vertex="1" parent="1">
          <mxGeometry x="-320" y="360" width="120" height="40" as="geometry" />
        </mxCell>
        <mxCell id="xACsCUWBazeNwFVSPH7_-13" style="edgeStyle=orthogonalEdgeStyle;rounded=0;orthogonalLoop=1;jettySize=auto;html=1;entryX=0.5;entryY=0;entryDx=0;entryDy=0;endArrow=none;endFill=0;shape=link;" edge="1" parent="1" source="xACsCUWBazeNwFVSPH7_-18" target="jm79QStJ3uFLxcATrEid-52">
          <mxGeometry relative="1" as="geometry" />
        </mxCell>
        <mxCell id="xACsCUWBazeNwFVSPH7_-11" value="memiliki" style="shape=rhombus;perimeter=rhombusPerimeter;whiteSpace=wrap;html=1;align=center;" vertex="1" parent="1">
          <mxGeometry x="190" y="385" width="120" height="60" as="geometry" />
        </mxCell>
        <mxCell id="xACsCUWBazeNwFVSPH7_-17" value="" style="edgeStyle=orthogonalEdgeStyle;rounded=0;orthogonalLoop=1;jettySize=auto;html=1;entryX=0.5;entryY=0;entryDx=0;entryDy=0;endArrow=none;endFill=0;shape=link;" edge="1" parent="1" source="jm79QStJ3uFLxcATrEid-77" target="xACsCUWBazeNwFVSPH7_-16">
          <mxGeometry relative="1" as="geometry">
            <mxPoint x="320" y="320" as="sourcePoint" />
            <mxPoint x="210" y="380" as="targetPoint" />
          </mxGeometry>
        </mxCell>
        <mxCell id="xACsCUWBazeNwFVSPH7_-16" value="1" style="text;html=1;align=center;verticalAlign=middle;resizable=0;points=[];autosize=1;strokeColor=none;fillColor=none;" vertex="1" parent="1">
          <mxGeometry x="230" y="340" width="30" height="30" as="geometry" />
        </mxCell>
        <mxCell id="xACsCUWBazeNwFVSPH7_-20" style="edgeStyle=orthogonalEdgeStyle;rounded=0;orthogonalLoop=1;jettySize=auto;html=1;entryX=0.948;entryY=0.454;entryDx=0;entryDy=0;entryPerimeter=0;endArrow=none;endFill=0;shape=link;" edge="1" parent="1" source="xACsCUWBazeNwFVSPH7_-18" target="xACsCUWBazeNwFVSPH7_-11">
          <mxGeometry relative="1" as="geometry">
            <Array as="points">
              <mxPoint x="304" y="415" />
            </Array>
          </mxGeometry>
        </mxCell>
        <mxCell id="xACsCUWBazeNwFVSPH7_-18" value="1" style="text;html=1;align=center;verticalAlign=middle;resizable=0;points=[];autosize=1;strokeColor=none;fillColor=none;" vertex="1" parent="1">
          <mxGeometry x="395" y="400" width="30" height="30" as="geometry" />
        </mxCell>
        <mxCell id="E2ecsIdMudpUd0kOlla6-2" style="rounded=0;orthogonalLoop=1;jettySize=auto;html=1;endArrow=none;endFill=0;" edge="1" parent="1" source="E2ecsIdMudpUd0kOlla6-1" target="jm79QStJ3uFLxcATrEid-99">
          <mxGeometry relative="1" as="geometry" />
        </mxCell>
        <mxCell id="E2ecsIdMudpUd0kOlla6-1" value="Status_serifikat" style="ellipse;whiteSpace=wrap;html=1;align=center;" vertex="1" parent="1">
          <mxGeometry x="975" y="810" width="135" height="40" as="geometry" />
        </mxCell>
      </root>
    </mxGraphModel>
  </diagram>
</mxfile>
